# xmcd CD database file
#
# Track frame offsets:
#	150
#	17470
#	25572
#	38950
#	62605
#	74731
#	90792
#	112082
#	134680
#	156355
#	168732
#	191618
#	205338
#	219203
#	233333
#	252551
#	262971
#	276114
#	305701
#	319983
#
# Disc length: 4447 seconds
#
# Revision: 0
# Processed by: cddbd v1.5.2PL0 Copyright (c) Steve Scherf et al.
# Submitted via: CDex 1.50
#
DISCID=20115d14
DTITLE=Rambling Steve Gardner - Hesitation Blues
DYEAR=2013
DGENRE=Blues
TTITLE0=Hesitation Blues
TTITLE1=Mississippi River Blues
TTITLE2=Salty Dog
TTITLE3=16 Tons
TTITLE4=In the Pines
TTITLE5=What's the Matter With the Mill
TTITLE6=Love in Vain
TTITLE7=Waiting for a Train
TTITLE8=Jesus On the Main Line
TTITLE9=Careless Love
TTITLE10=St. Louis Blues
TTITLE11=The Preacher and the Bear
TTITLE12=Froggy Went A-Courtin'
TTITLE13=Shady Grove
TTITLE14=Storms On the Ocean
TTITLE15=Bill Baily Rag
TTITLE16=House of the Rising Sun
TTITLE17=Going Down Slow
TTITLE18=I Shall Not Be Moved
TTITLE19=Gospel Plow
EXTD=YEAR: 2013
EXTT0=
EXTT1=
EXTT2=
EXTT3=
EXTT4=
EXTT5=
EXTT6=
EXTT7=
EXTT8=
EXTT9=
EXTT10=
EXTT11=
EXTT12=
EXTT13=
EXTT14=
EXTT15=
EXTT16=
EXTT17=
EXTT18=
EXTT19=
PLAYORDER=
